%TF.GenerationSoftware,KiCad,Pcbnew,(6.0.8-1)-1*%
%TF.CreationDate,2022-10-29T17:02:30-07:00*%
%TF.ProjectId,a41,6134312e-6b69-4636-9164-5f7063625858,rev?*%
%TF.SameCoordinates,Original*%
%TF.FileFunction,OtherDrawing,Comment*%
%FSLAX46Y46*%
G04 Gerber Fmt 4.6, Leading zero omitted, Abs format (unit mm)*
G04 Created by KiCad (PCBNEW (6.0.8-1)-1) date 2022-10-29 17:02:30*
%MOMM*%
%LPD*%
G01*
G04 APERTURE LIST*
%ADD10C,0.300000*%
G04 APERTURE END LIST*
D10*
X30080000Y-144140000D02*
X30080000Y-154140000D01*
X50080000Y-144140000D02*
X30080000Y-144140000D01*
X50080000Y-154140000D02*
X50080000Y-144140000D01*
X30080000Y-154140000D02*
X50080000Y-154140000D01*
X40080000Y-144140000D02*
X40080000Y-154140000D01*
X30080000Y-149140000D02*
X50080000Y-149140000D01*
X30080000Y-144140000D02*
X30080000Y-154140000D01*
X50080000Y-144140000D02*
X30080000Y-144140000D01*
X50080000Y-154140000D02*
X50080000Y-144140000D01*
X30080000Y-154140000D02*
X50080000Y-154140000D01*
X40080000Y-144140000D02*
X40080000Y-154140000D01*
X30080000Y-149140000D02*
X50080000Y-149140000D01*
X81580000Y-167140000D02*
X81580000Y-181140000D01*
X81588432Y-166796526D02*
X81580000Y-167140000D01*
X81613707Y-166453880D02*
X81588432Y-166796526D01*
X81655764Y-166112887D02*
X81613707Y-166453880D01*
X81714503Y-165774368D02*
X81655764Y-166112887D01*
X81789781Y-165439139D02*
X81714503Y-165774368D01*
X81881418Y-165108007D02*
X81789781Y-165439139D01*
X81989192Y-164781771D02*
X81881418Y-165108007D01*
X82112843Y-164461216D02*
X81989192Y-164781771D01*
X82252075Y-164147114D02*
X82112843Y-164461216D01*
X82406551Y-163840223D02*
X82252075Y-164147114D01*
X82575900Y-163541281D02*
X82406551Y-163840223D01*
X82759713Y-163251008D02*
X82575900Y-163541281D01*
X82957547Y-162970105D02*
X82759713Y-163251008D01*
X83168927Y-162699247D02*
X82957547Y-162970105D01*
X83393342Y-162439087D02*
X83168927Y-162699247D01*
X83630253Y-162190253D02*
X83393342Y-162439087D01*
X83879087Y-161953342D02*
X83630253Y-162190253D01*
X84139247Y-161728927D02*
X83879087Y-161953342D01*
X84410105Y-161517547D02*
X84139247Y-161728927D01*
X84691008Y-161319713D02*
X84410105Y-161517547D01*
X84981281Y-161135900D02*
X84691008Y-161319713D01*
X85280223Y-160966551D02*
X84981281Y-161135900D01*
X85587114Y-160812075D02*
X85280223Y-160966551D01*
X85901216Y-160672843D02*
X85587114Y-160812075D01*
X86221771Y-160549192D02*
X85901216Y-160672843D01*
X86548007Y-160441418D02*
X86221771Y-160549192D01*
X86879139Y-160349781D02*
X86548007Y-160441418D01*
X87214368Y-160274503D02*
X86879139Y-160349781D01*
X87552887Y-160215764D02*
X87214368Y-160274503D01*
X87893880Y-160173707D02*
X87552887Y-160215764D01*
X88236526Y-160148432D02*
X87893880Y-160173707D01*
X88580000Y-160140000D02*
X88236526Y-160148432D01*
X88923474Y-160148432D02*
X88580000Y-160140000D01*
X89266120Y-160173707D02*
X88923474Y-160148432D01*
X89607113Y-160215764D02*
X89266120Y-160173707D01*
X89945632Y-160274503D02*
X89607113Y-160215764D01*
X90280861Y-160349781D02*
X89945632Y-160274503D01*
X90611993Y-160441418D02*
X90280861Y-160349781D01*
X90938229Y-160549192D02*
X90611993Y-160441418D01*
X91258784Y-160672843D02*
X90938229Y-160549192D01*
X91572886Y-160812075D02*
X91258784Y-160672843D01*
X91879777Y-160966551D02*
X91572886Y-160812075D01*
X92178719Y-161135900D02*
X91879777Y-160966551D01*
X92468992Y-161319713D02*
X92178719Y-161135900D01*
X92749895Y-161517547D02*
X92468992Y-161319713D01*
X93020753Y-161728927D02*
X92749895Y-161517547D01*
X93280913Y-161953342D02*
X93020753Y-161728927D01*
X93529747Y-162190253D02*
X93280913Y-161953342D01*
X93766658Y-162439087D02*
X93529747Y-162190253D01*
X93991073Y-162699247D02*
X93766658Y-162439087D01*
X94202453Y-162970105D02*
X93991073Y-162699247D01*
X94400287Y-163251008D02*
X94202453Y-162970105D01*
X94584100Y-163541281D02*
X94400287Y-163251008D01*
X94753449Y-163840223D02*
X94584100Y-163541281D01*
X94907925Y-164147114D02*
X94753449Y-163840223D01*
X95047157Y-164461216D02*
X94907925Y-164147114D01*
X95170808Y-164781771D02*
X95047157Y-164461216D01*
X95278582Y-165108007D02*
X95170808Y-164781771D01*
X95370219Y-165439139D02*
X95278582Y-165108007D01*
X95445497Y-165774368D02*
X95370219Y-165439139D01*
X95504236Y-166112887D02*
X95445497Y-165774368D01*
X95546293Y-166453880D02*
X95504236Y-166112887D01*
X95571568Y-166796526D02*
X95546293Y-166453880D01*
X95580000Y-167140000D02*
X95571568Y-166796526D01*
X95580000Y-181140000D02*
X95580000Y-167140000D01*
X81580000Y-181140000D02*
X95580000Y-181140000D01*
X81580000Y-167140000D02*
X81580000Y-181140000D01*
X95580000Y-167140000D02*
X81580000Y-167140000D01*
X95580000Y-181140000D02*
X95580000Y-167140000D01*
X81580000Y-181140000D02*
X95580000Y-181140000D01*
X94078193Y-173213602D02*
X94080000Y-173140000D01*
X94072777Y-173287026D02*
X94078193Y-173213602D01*
X94063765Y-173360096D02*
X94072777Y-173287026D01*
X94051178Y-173432635D02*
X94063765Y-173360096D01*
X94035047Y-173504470D02*
X94051178Y-173432635D01*
X94015411Y-173575427D02*
X94035047Y-173504470D01*
X93992316Y-173645335D02*
X94015411Y-173575427D01*
X93965819Y-173714025D02*
X93992316Y-173645335D01*
X93935984Y-173781333D02*
X93965819Y-173714025D01*
X93902882Y-173847095D02*
X93935984Y-173781333D01*
X93866593Y-173911154D02*
X93902882Y-173847095D01*
X93827204Y-173973355D02*
X93866593Y-173911154D01*
X93784811Y-174033549D02*
X93827204Y-173973355D01*
X93739516Y-174091590D02*
X93784811Y-174033549D01*
X93691427Y-174147338D02*
X93739516Y-174091590D01*
X93640660Y-174200660D02*
X93691427Y-174147338D01*
X93587338Y-174251427D02*
X93640660Y-174200660D01*
X93531590Y-174299516D02*
X93587338Y-174251427D01*
X93473549Y-174344811D02*
X93531590Y-174299516D01*
X93413355Y-174387204D02*
X93473549Y-174344811D01*
X93351154Y-174426593D02*
X93413355Y-174387204D01*
X93287095Y-174462882D02*
X93351154Y-174426593D01*
X93221333Y-174495984D02*
X93287095Y-174462882D01*
X93154025Y-174525819D02*
X93221333Y-174495984D01*
X93085335Y-174552316D02*
X93154025Y-174525819D01*
X93015427Y-174575411D02*
X93085335Y-174552316D01*
X92944470Y-174595047D02*
X93015427Y-174575411D01*
X92872635Y-174611178D02*
X92944470Y-174595047D01*
X92800096Y-174623765D02*
X92872635Y-174611178D01*
X92727026Y-174632777D02*
X92800096Y-174623765D01*
X92653602Y-174638193D02*
X92727026Y-174632777D01*
X92580000Y-174640000D02*
X92653602Y-174638193D01*
X92506398Y-174638193D02*
X92580000Y-174640000D01*
X92432974Y-174632777D02*
X92506398Y-174638193D01*
X92359904Y-174623765D02*
X92432974Y-174632777D01*
X92287365Y-174611178D02*
X92359904Y-174623765D01*
X92215530Y-174595047D02*
X92287365Y-174611178D01*
X92144573Y-174575411D02*
X92215530Y-174595047D01*
X92074665Y-174552316D02*
X92144573Y-174575411D01*
X92005975Y-174525819D02*
X92074665Y-174552316D01*
X91938667Y-174495984D02*
X92005975Y-174525819D01*
X91872905Y-174462882D02*
X91938667Y-174495984D01*
X91808846Y-174426593D02*
X91872905Y-174462882D01*
X91746645Y-174387204D02*
X91808846Y-174426593D01*
X91686451Y-174344811D02*
X91746645Y-174387204D01*
X91628410Y-174299516D02*
X91686451Y-174344811D01*
X91572662Y-174251427D02*
X91628410Y-174299516D01*
X91519340Y-174200660D02*
X91572662Y-174251427D01*
X91468573Y-174147338D02*
X91519340Y-174200660D01*
X91420484Y-174091590D02*
X91468573Y-174147338D01*
X91375189Y-174033549D02*
X91420484Y-174091590D01*
X91332796Y-173973355D02*
X91375189Y-174033549D01*
X91293407Y-173911154D02*
X91332796Y-173973355D01*
X91257118Y-173847095D02*
X91293407Y-173911154D01*
X91224016Y-173781333D02*
X91257118Y-173847095D01*
X91194181Y-173714025D02*
X91224016Y-173781333D01*
X91167684Y-173645335D02*
X91194181Y-173714025D01*
X91144589Y-173575427D02*
X91167684Y-173645335D01*
X91124953Y-173504470D02*
X91144589Y-173575427D01*
X91108822Y-173432635D02*
X91124953Y-173504470D01*
X91096235Y-173360096D02*
X91108822Y-173432635D01*
X91087223Y-173287026D02*
X91096235Y-173360096D01*
X91081807Y-173213602D02*
X91087223Y-173287026D01*
X91080000Y-173140000D02*
X91081807Y-173213602D01*
X91081807Y-173066398D02*
X91080000Y-173140000D01*
X91087223Y-172992974D02*
X91081807Y-173066398D01*
X91096235Y-172919904D02*
X91087223Y-172992974D01*
X91108822Y-172847365D02*
X91096235Y-172919904D01*
X91124953Y-172775530D02*
X91108822Y-172847365D01*
X91144589Y-172704573D02*
X91124953Y-172775530D01*
X91167684Y-172634665D02*
X91144589Y-172704573D01*
X91194181Y-172565975D02*
X91167684Y-172634665D01*
X91224016Y-172498667D02*
X91194181Y-172565975D01*
X91257118Y-172432905D02*
X91224016Y-172498667D01*
X91293407Y-172368846D02*
X91257118Y-172432905D01*
X91332796Y-172306645D02*
X91293407Y-172368846D01*
X91375189Y-172246451D02*
X91332796Y-172306645D01*
X91420484Y-172188410D02*
X91375189Y-172246451D01*
X91468573Y-172132662D02*
X91420484Y-172188410D01*
X91519340Y-172079340D02*
X91468573Y-172132662D01*
X91572662Y-172028573D02*
X91519340Y-172079340D01*
X91628410Y-171980484D02*
X91572662Y-172028573D01*
X91686451Y-171935189D02*
X91628410Y-171980484D01*
X91746645Y-171892796D02*
X91686451Y-171935189D01*
X91808846Y-171853407D02*
X91746645Y-171892796D01*
X91872905Y-171817118D02*
X91808846Y-171853407D01*
X91938667Y-171784016D02*
X91872905Y-171817118D01*
X92005975Y-171754181D02*
X91938667Y-171784016D01*
X92074665Y-171727684D02*
X92005975Y-171754181D01*
X92144573Y-171704589D02*
X92074665Y-171727684D01*
X92215530Y-171684953D02*
X92144573Y-171704589D01*
X92287365Y-171668822D02*
X92215530Y-171684953D01*
X92359904Y-171656235D02*
X92287365Y-171668822D01*
X92432974Y-171647223D02*
X92359904Y-171656235D01*
X92506398Y-171641807D02*
X92432974Y-171647223D01*
X92580000Y-171640000D02*
X92506398Y-171641807D01*
X92653602Y-171641807D02*
X92580000Y-171640000D01*
X92727026Y-171647223D02*
X92653602Y-171641807D01*
X92800096Y-171656235D02*
X92727026Y-171647223D01*
X92872635Y-171668822D02*
X92800096Y-171656235D01*
X92944470Y-171684953D02*
X92872635Y-171668822D01*
X93015427Y-171704589D02*
X92944470Y-171684953D01*
X93085335Y-171727684D02*
X93015427Y-171704589D01*
X93154025Y-171754181D02*
X93085335Y-171727684D01*
X93221333Y-171784016D02*
X93154025Y-171754181D01*
X93287095Y-171817118D02*
X93221333Y-171784016D01*
X93351154Y-171853407D02*
X93287095Y-171817118D01*
X93413355Y-171892796D02*
X93351154Y-171853407D01*
X93473549Y-171935189D02*
X93413355Y-171892796D01*
X93531590Y-171980484D02*
X93473549Y-171935189D01*
X93587338Y-172028573D02*
X93531590Y-171980484D01*
X93640660Y-172079340D02*
X93587338Y-172028573D01*
X93691427Y-172132662D02*
X93640660Y-172079340D01*
X93739516Y-172188410D02*
X93691427Y-172132662D01*
X93784811Y-172246451D02*
X93739516Y-172188410D01*
X93827204Y-172306645D02*
X93784811Y-172246451D01*
X93866593Y-172368846D02*
X93827204Y-172306645D01*
X93902882Y-172432905D02*
X93866593Y-172368846D01*
X93935984Y-172498667D02*
X93902882Y-172432905D01*
X93965819Y-172565975D02*
X93935984Y-172498667D01*
X93992316Y-172634665D02*
X93965819Y-172565975D01*
X94015411Y-172704573D02*
X93992316Y-172634665D01*
X94035047Y-172775530D02*
X94015411Y-172704573D01*
X94051178Y-172847365D02*
X94035047Y-172775530D01*
X94063765Y-172919904D02*
X94051178Y-172847365D01*
X94072777Y-172992974D02*
X94063765Y-172919904D01*
X94078193Y-173066398D02*
X94072777Y-172992974D01*
X94080000Y-173140000D02*
X94078193Y-173066398D01*
M02*
