%TF.GenerationSoftware,KiCad,Pcbnew,(6.0.8-1)-1*%
%TF.CreationDate,2022-10-29T17:43:34-07:00*%
%TF.ProjectId,second cuts,7365636f-6e64-4206-9375-74732e6b6963,rev?*%
%TF.SameCoordinates,Original*%
%TF.FileFunction,OtherDrawing,Comment*%
%FSLAX46Y46*%
G04 Gerber Fmt 4.6, Leading zero omitted, Abs format (unit mm)*
G04 Created by KiCad (PCBNEW (6.0.8-1)-1) date 2022-10-29 17:43:34*
%MOMM*%
%LPD*%
G01*
G04 APERTURE LIST*
%ADD10C,0.300000*%
G04 APERTURE END LIST*
D10*
X94424243Y-168245320D02*
X102135587Y-167570665D01*
X94060400Y-170351200D02*
X101359600Y-171928800D01*
X94291115Y-169093592D02*
X101708715Y-169333592D01*
X87983915Y-170565592D02*
X82758315Y-172549592D01*
X88102315Y-169333592D02*
X81555115Y-169983192D01*
X87983915Y-168463192D02*
X81945515Y-167503192D01*
X92799647Y-169826899D02*
X92828715Y-169797592D01*
X92769584Y-169855183D02*
X92799647Y-169826899D01*
X92738562Y-169882413D02*
X92769584Y-169855183D01*
X92706618Y-169908555D02*
X92738562Y-169882413D01*
X92673791Y-169933578D02*
X92706618Y-169908555D01*
X92640118Y-169957453D02*
X92673791Y-169933578D01*
X92605642Y-169980150D02*
X92640118Y-169957453D01*
X92570402Y-170001644D02*
X92605642Y-169980150D01*
X92534441Y-170021907D02*
X92570402Y-170001644D01*
X92497801Y-170040916D02*
X92534441Y-170021907D01*
X92460527Y-170058649D02*
X92497801Y-170040916D01*
X92422663Y-170075084D02*
X92460527Y-170058649D01*
X92384253Y-170090201D02*
X92422663Y-170075084D01*
X92345345Y-170103983D02*
X92384253Y-170090201D01*
X92305984Y-170116413D02*
X92345345Y-170103983D01*
X92266217Y-170127476D02*
X92305984Y-170116413D01*
X92226091Y-170137159D02*
X92266217Y-170127476D01*
X92185655Y-170145451D02*
X92226091Y-170137159D01*
X92144957Y-170152341D02*
X92185655Y-170145451D01*
X92104045Y-170157821D02*
X92144957Y-170152341D01*
X92062969Y-170161886D02*
X92104045Y-170157821D01*
X92021776Y-170164529D02*
X92062969Y-170161886D01*
X91980517Y-170165748D02*
X92021776Y-170164529D01*
X91939240Y-170165542D02*
X91980517Y-170165748D01*
X91897995Y-170163910D02*
X91939240Y-170165542D01*
X91856831Y-170160854D02*
X91897995Y-170163910D01*
X91815797Y-170156379D02*
X91856831Y-170160854D01*
X91774942Y-170150490D02*
X91815797Y-170156379D01*
X91734315Y-170143192D02*
X91774942Y-170150490D01*
X91706562Y-170139873D02*
X91734315Y-170143192D01*
X91678936Y-170135622D02*
X91706562Y-170139873D01*
X91651469Y-170130446D02*
X91678936Y-170135622D01*
X91624191Y-170124350D02*
X91651469Y-170130446D01*
X91597133Y-170117340D02*
X91624191Y-170124350D01*
X91570326Y-170109425D02*
X91597133Y-170117340D01*
X91543801Y-170100614D02*
X91570326Y-170109425D01*
X91517586Y-170090916D02*
X91543801Y-170100614D01*
X91491712Y-170080343D02*
X91517586Y-170090916D01*
X91466208Y-170068907D02*
X91491712Y-170080343D01*
X91441103Y-170056620D02*
X91466208Y-170068907D01*
X91416424Y-170043496D02*
X91441103Y-170056620D01*
X91392201Y-170029551D02*
X91416424Y-170043496D01*
X91368460Y-170014799D02*
X91392201Y-170029551D01*
X91345228Y-169999258D02*
X91368460Y-170014799D01*
X91322531Y-169982945D02*
X91345228Y-169999258D01*
X91300396Y-169965878D02*
X91322531Y-169982945D01*
X91278846Y-169948077D02*
X91300396Y-169965878D01*
X91257907Y-169929563D02*
X91278846Y-169948077D01*
X91237602Y-169910355D02*
X91257907Y-169929563D01*
X91217953Y-169890475D02*
X91237602Y-169910355D01*
X91198984Y-169869947D02*
X91217953Y-169890475D01*
X91180715Y-169848792D02*
X91198984Y-169869947D01*
X89592130Y-169825923D02*
X89564715Y-169797592D01*
X89620491Y-169853308D02*
X89592130Y-169825923D01*
X89649763Y-169879716D02*
X89620491Y-169853308D01*
X89679913Y-169905116D02*
X89649763Y-169879716D01*
X89710908Y-169929479D02*
X89679913Y-169905116D01*
X89742711Y-169952778D02*
X89710908Y-169929479D01*
X89775285Y-169974985D02*
X89742711Y-169952778D01*
X89808593Y-169996075D02*
X89775285Y-169974985D01*
X89842597Y-170016023D02*
X89808593Y-169996075D01*
X89877258Y-170034807D02*
X89842597Y-170016023D01*
X89912536Y-170052406D02*
X89877258Y-170034807D01*
X89948391Y-170068798D02*
X89912536Y-170052406D01*
X89984780Y-170083965D02*
X89948391Y-170068798D01*
X90021663Y-170097890D02*
X89984780Y-170083965D01*
X90058996Y-170110556D02*
X90021663Y-170097890D01*
X90096738Y-170121949D02*
X90058996Y-170110556D01*
X90134844Y-170132056D02*
X90096738Y-170121949D01*
X90173271Y-170140866D02*
X90134844Y-170132056D01*
X90211974Y-170148368D02*
X90173271Y-170140866D01*
X90250910Y-170154553D02*
X90211974Y-170148368D01*
X90290032Y-170159415D02*
X90250910Y-170154553D01*
X90329298Y-170162947D02*
X90290032Y-170159415D01*
X90368660Y-170165146D02*
X90329298Y-170162947D01*
X90408074Y-170166010D02*
X90368660Y-170165146D01*
X90447495Y-170165537D02*
X90408074Y-170166010D01*
X90486877Y-170163727D02*
X90447495Y-170165537D01*
X90526175Y-170160584D02*
X90486877Y-170163727D01*
X90565344Y-170156110D02*
X90526175Y-170160584D01*
X90604339Y-170150311D02*
X90565344Y-170156110D01*
X90643115Y-170143192D02*
X90604339Y-170150311D01*
X90670457Y-170139672D02*
X90643115Y-170143192D01*
X90697665Y-170135239D02*
X90670457Y-170139672D01*
X90724710Y-170129898D02*
X90697665Y-170135239D01*
X90751562Y-170123656D02*
X90724710Y-170129898D01*
X90778189Y-170116519D02*
X90751562Y-170123656D01*
X90804563Y-170108495D02*
X90778189Y-170116519D01*
X90830654Y-170099594D02*
X90804563Y-170108495D01*
X90856432Y-170089825D02*
X90830654Y-170099594D01*
X90881869Y-170079200D02*
X90856432Y-170089825D01*
X90906937Y-170067729D02*
X90881869Y-170079200D01*
X90931607Y-170055427D02*
X90906937Y-170067729D01*
X90955852Y-170042306D02*
X90931607Y-170055427D01*
X90979644Y-170028382D02*
X90955852Y-170042306D01*
X91002957Y-170013670D02*
X90979644Y-170028382D01*
X91025765Y-169998186D02*
X91002957Y-170013670D01*
X91048043Y-169981948D02*
X91025765Y-169998186D01*
X91069765Y-169964974D02*
X91048043Y-169981948D01*
X91090907Y-169947283D02*
X91069765Y-169964974D01*
X91111445Y-169928895D02*
X91090907Y-169947283D01*
X91131357Y-169909830D02*
X91111445Y-169928895D01*
X91150621Y-169890110D02*
X91131357Y-169909830D01*
X91169213Y-169869756D02*
X91150621Y-169890110D01*
X91187115Y-169848792D02*
X91169213Y-169869756D01*
X91180715Y-168815192D02*
X91180715Y-169851992D01*
X91724715Y-167291992D02*
X91612715Y-167301592D01*
X92556715Y-167365592D02*
X91724715Y-167291992D01*
X92475525Y-167500035D02*
X92556715Y-167365592D01*
X92389940Y-167631723D02*
X92475525Y-167500035D01*
X92300053Y-167760513D02*
X92389940Y-167631723D01*
X92205961Y-167886265D02*
X92300053Y-167760513D01*
X92107769Y-168008840D02*
X92205961Y-167886265D01*
X92005582Y-168128107D02*
X92107769Y-168008840D01*
X91899513Y-168243934D02*
X92005582Y-168128107D01*
X91789676Y-168356195D02*
X91899513Y-168243934D01*
X91676193Y-168464767D02*
X91789676Y-168356195D01*
X91559185Y-168569533D02*
X91676193Y-168464767D01*
X91438783Y-168670378D02*
X91559185Y-168569533D01*
X91315115Y-168767192D02*
X91438783Y-168670378D01*
X91183915Y-168818392D02*
X91315115Y-168767192D01*
X91084715Y-168751192D02*
X91183915Y-168818392D01*
X89673515Y-167323992D02*
X91084715Y-168751192D01*
X91612715Y-167301592D02*
X89673515Y-167323992D01*
X99074442Y-165356353D02*
X99075115Y-165317592D01*
X99072425Y-165395067D02*
X99074442Y-165356353D01*
X99069065Y-165433687D02*
X99072425Y-165395067D01*
X99064366Y-165472168D02*
X99069065Y-165433687D01*
X99058335Y-165510462D02*
X99064366Y-165472168D01*
X99050978Y-165548524D02*
X99058335Y-165510462D01*
X99042305Y-165586308D02*
X99050978Y-165548524D01*
X99032326Y-165623768D02*
X99042305Y-165586308D01*
X99021052Y-165660859D02*
X99032326Y-165623768D01*
X99008499Y-165697536D02*
X99021052Y-165660859D01*
X98994679Y-165733756D02*
X99008499Y-165697536D01*
X98979611Y-165769474D02*
X98994679Y-165733756D01*
X98963313Y-165804647D02*
X98979611Y-165769474D01*
X98945803Y-165839234D02*
X98963313Y-165804647D01*
X98927104Y-165873192D02*
X98945803Y-165839234D01*
X98907237Y-165906481D02*
X98927104Y-165873192D01*
X98886227Y-165939060D02*
X98907237Y-165906481D01*
X98864099Y-165970891D02*
X98886227Y-165939060D01*
X98840879Y-166001934D02*
X98864099Y-165970891D01*
X98816596Y-166032153D02*
X98840879Y-166001934D01*
X98791279Y-166061510D02*
X98816596Y-166032153D01*
X98764958Y-166089971D02*
X98791279Y-166061510D01*
X98737665Y-166117502D02*
X98764958Y-166089971D01*
X98709434Y-166144069D02*
X98737665Y-166117502D01*
X98680297Y-166169640D02*
X98709434Y-166144069D01*
X98650290Y-166194184D02*
X98680297Y-166169640D01*
X98619449Y-166217672D02*
X98650290Y-166194184D01*
X98587812Y-166240076D02*
X98619449Y-166217672D01*
X98555417Y-166261368D02*
X98587812Y-166240076D01*
X98522301Y-166281523D02*
X98555417Y-166261368D01*
X98488507Y-166300516D02*
X98522301Y-166281523D01*
X98454073Y-166318325D02*
X98488507Y-166300516D01*
X98419042Y-166334929D02*
X98454073Y-166318325D01*
X98383456Y-166350306D02*
X98419042Y-166334929D01*
X98347358Y-166364439D02*
X98383456Y-166350306D01*
X98310791Y-166377311D02*
X98347358Y-166364439D01*
X98273799Y-166388906D02*
X98310791Y-166377311D01*
X98236427Y-166399210D02*
X98273799Y-166388906D01*
X98198720Y-166408210D02*
X98236427Y-166399210D01*
X98160724Y-166415897D02*
X98198720Y-166408210D01*
X98122483Y-166422260D02*
X98160724Y-166415897D01*
X98084045Y-166427293D02*
X98122483Y-166422260D01*
X98045455Y-166430988D02*
X98084045Y-166427293D01*
X98006760Y-166433341D02*
X98045455Y-166430988D01*
X97968007Y-166434350D02*
X98006760Y-166433341D01*
X97929242Y-166434014D02*
X97968007Y-166434350D01*
X97890512Y-166432332D02*
X97929242Y-166434014D01*
X97851864Y-166429308D02*
X97890512Y-166432332D01*
X97813344Y-166424943D02*
X97851864Y-166429308D01*
X97774999Y-166419245D02*
X97813344Y-166424943D01*
X97736875Y-166412219D02*
X97774999Y-166419245D01*
X97699017Y-166403874D02*
X97736875Y-166412219D01*
X97661472Y-166394220D02*
X97699017Y-166403874D01*
X97624285Y-166383269D02*
X97661472Y-166394220D01*
X97587500Y-166371034D02*
X97624285Y-166383269D01*
X97551162Y-166357529D02*
X97587500Y-166371034D01*
X97515314Y-166342772D02*
X97551162Y-166357529D01*
X97480000Y-166326779D02*
X97515314Y-166342772D01*
X97445263Y-166309570D02*
X97480000Y-166326779D01*
X97411144Y-166291166D02*
X97445263Y-166309570D01*
X97377684Y-166271589D02*
X97411144Y-166291166D01*
X97344923Y-166250862D02*
X97377684Y-166271589D01*
X97312902Y-166229011D02*
X97344923Y-166250862D01*
X97281659Y-166206062D02*
X97312902Y-166229011D01*
X97251230Y-166182042D02*
X97281659Y-166206062D01*
X97221654Y-166156981D02*
X97251230Y-166182042D01*
X97192965Y-166130908D02*
X97221654Y-166156981D01*
X97165199Y-166103855D02*
X97192965Y-166130908D01*
X97138388Y-166075855D02*
X97165199Y-166103855D01*
X97112565Y-166046941D02*
X97138388Y-166075855D01*
X97087762Y-166017149D02*
X97112565Y-166046941D01*
X97064007Y-165986513D02*
X97087762Y-166017149D01*
X97041329Y-165955071D02*
X97064007Y-165986513D01*
X97019757Y-165922862D02*
X97041329Y-165955071D01*
X96999316Y-165889923D02*
X97019757Y-165922862D01*
X96980030Y-165856294D02*
X96999316Y-165889923D01*
X96961922Y-165822017D02*
X96980030Y-165856294D01*
X96945016Y-165787131D02*
X96961922Y-165822017D01*
X96929330Y-165751680D02*
X96945016Y-165787131D01*
X96914884Y-165715706D02*
X96929330Y-165751680D01*
X96901696Y-165679252D02*
X96914884Y-165715706D01*
X96889780Y-165642362D02*
X96901696Y-165679252D01*
X96879152Y-165605081D02*
X96889780Y-165642362D01*
X96869825Y-165567454D02*
X96879152Y-165605081D01*
X96861808Y-165529525D02*
X96869825Y-165567454D01*
X96855114Y-165491341D02*
X96861808Y-165529525D01*
X96849748Y-165452948D02*
X96855114Y-165491341D01*
X96845718Y-165414392D02*
X96849748Y-165452948D01*
X96843029Y-165375719D02*
X96845718Y-165414392D01*
X96841683Y-165336976D02*
X96843029Y-165375719D01*
X96841683Y-165298209D02*
X96841683Y-165336976D01*
X96843029Y-165259466D02*
X96841683Y-165298209D01*
X96845718Y-165220793D02*
X96843029Y-165259466D01*
X96849748Y-165182237D02*
X96845718Y-165220793D01*
X96855114Y-165143844D02*
X96849748Y-165182237D01*
X96861808Y-165105660D02*
X96855114Y-165143844D01*
X96869825Y-165067731D02*
X96861808Y-165105660D01*
X96879152Y-165030104D02*
X96869825Y-165067731D01*
X96889780Y-164992823D02*
X96879152Y-165030104D01*
X96901696Y-164955933D02*
X96889780Y-164992823D01*
X96914884Y-164919479D02*
X96901696Y-164955933D01*
X96929330Y-164883505D02*
X96914884Y-164919479D01*
X96945016Y-164848054D02*
X96929330Y-164883505D01*
X96961922Y-164813168D02*
X96945016Y-164848054D01*
X96980030Y-164778891D02*
X96961922Y-164813168D01*
X96999316Y-164745262D02*
X96980030Y-164778891D01*
X97019757Y-164712323D02*
X96999316Y-164745262D01*
X97041329Y-164680113D02*
X97019757Y-164712323D01*
X97064007Y-164648672D02*
X97041329Y-164680113D01*
X97087762Y-164618036D02*
X97064007Y-164648672D01*
X97112565Y-164588244D02*
X97087762Y-164618036D01*
X97138388Y-164559330D02*
X97112565Y-164588244D01*
X97165199Y-164531330D02*
X97138388Y-164559330D01*
X97192965Y-164504277D02*
X97165199Y-164531330D01*
X97221654Y-164478204D02*
X97192965Y-164504277D01*
X97251230Y-164453143D02*
X97221654Y-164478204D01*
X97281659Y-164429123D02*
X97251230Y-164453143D01*
X97312902Y-164406174D02*
X97281659Y-164429123D01*
X97344923Y-164384322D02*
X97312902Y-164406174D01*
X97377684Y-164363596D02*
X97344923Y-164384322D01*
X97411144Y-164344019D02*
X97377684Y-164363596D01*
X97445263Y-164325615D02*
X97411144Y-164344019D01*
X97480000Y-164308406D02*
X97445263Y-164325615D01*
X97515314Y-164292413D02*
X97480000Y-164308406D01*
X97551162Y-164277656D02*
X97515314Y-164292413D01*
X97587500Y-164264151D02*
X97551162Y-164277656D01*
X97624285Y-164251916D02*
X97587500Y-164264151D01*
X97661472Y-164240965D02*
X97624285Y-164251916D01*
X97699017Y-164231311D02*
X97661472Y-164240965D01*
X97736875Y-164222966D02*
X97699017Y-164231311D01*
X97774999Y-164215940D02*
X97736875Y-164222966D01*
X97813344Y-164210242D02*
X97774999Y-164215940D01*
X97851864Y-164205877D02*
X97813344Y-164210242D01*
X97890512Y-164202853D02*
X97851864Y-164205877D01*
X97929242Y-164201171D02*
X97890512Y-164202853D01*
X97968007Y-164200835D02*
X97929242Y-164201171D01*
X98006760Y-164201844D02*
X97968007Y-164200835D01*
X98045455Y-164204197D02*
X98006760Y-164201844D01*
X98084045Y-164207892D02*
X98045455Y-164204197D01*
X98122483Y-164212925D02*
X98084045Y-164207892D01*
X98160724Y-164219288D02*
X98122483Y-164212925D01*
X98198720Y-164226975D02*
X98160724Y-164219288D01*
X98236427Y-164235975D02*
X98198720Y-164226975D01*
X98273799Y-164246279D02*
X98236427Y-164235975D01*
X98310791Y-164257874D02*
X98273799Y-164246279D01*
X98347358Y-164270746D02*
X98310791Y-164257874D01*
X98383456Y-164284879D02*
X98347358Y-164270746D01*
X98419042Y-164300256D02*
X98383456Y-164284879D01*
X98454073Y-164316860D02*
X98419042Y-164300256D01*
X98488507Y-164334669D02*
X98454073Y-164316860D01*
X98522301Y-164353662D02*
X98488507Y-164334669D01*
X98555417Y-164373817D02*
X98522301Y-164353662D01*
X98587812Y-164395109D02*
X98555417Y-164373817D01*
X98619449Y-164417513D02*
X98587812Y-164395109D01*
X98650290Y-164441001D02*
X98619449Y-164417513D01*
X98680297Y-164465545D02*
X98650290Y-164441001D01*
X98709434Y-164491116D02*
X98680297Y-164465545D01*
X98737665Y-164517683D02*
X98709434Y-164491116D01*
X98764958Y-164545213D02*
X98737665Y-164517683D01*
X98791279Y-164573675D02*
X98764958Y-164545213D01*
X98816596Y-164603032D02*
X98791279Y-164573675D01*
X98840879Y-164633251D02*
X98816596Y-164603032D01*
X98864099Y-164664294D02*
X98840879Y-164633251D01*
X98886227Y-164696125D02*
X98864099Y-164664294D01*
X98907237Y-164728704D02*
X98886227Y-164696125D01*
X98927104Y-164761993D02*
X98907237Y-164728704D01*
X98945803Y-164795951D02*
X98927104Y-164761993D01*
X98963313Y-164830538D02*
X98945803Y-164795951D01*
X98979611Y-164865711D02*
X98963313Y-164830538D01*
X98994679Y-164901429D02*
X98979611Y-164865711D01*
X99008499Y-164937649D02*
X98994679Y-164901429D01*
X99021052Y-164974326D02*
X99008499Y-164937649D01*
X99032326Y-165011417D02*
X99021052Y-164974326D01*
X99042305Y-165048877D02*
X99032326Y-165011417D01*
X99050978Y-165086661D02*
X99042305Y-165048877D01*
X99058335Y-165124723D02*
X99050978Y-165086661D01*
X99064366Y-165163017D02*
X99058335Y-165124723D01*
X99069065Y-165201498D02*
X99064366Y-165163017D01*
X99072425Y-165240118D02*
X99069065Y-165201498D01*
X99074442Y-165278832D02*
X99072425Y-165240118D01*
X99075115Y-165317592D02*
X99074442Y-165278832D01*
X84396042Y-165356353D02*
X84396715Y-165317592D01*
X84394025Y-165395067D02*
X84396042Y-165356353D01*
X84390665Y-165433687D02*
X84394025Y-165395067D01*
X84385966Y-165472168D02*
X84390665Y-165433687D01*
X84379935Y-165510462D02*
X84385966Y-165472168D01*
X84372578Y-165548524D02*
X84379935Y-165510462D01*
X84363905Y-165586308D02*
X84372578Y-165548524D01*
X84353926Y-165623768D02*
X84363905Y-165586308D01*
X84342652Y-165660859D02*
X84353926Y-165623768D01*
X84330099Y-165697536D02*
X84342652Y-165660859D01*
X84316279Y-165733756D02*
X84330099Y-165697536D01*
X84301211Y-165769474D02*
X84316279Y-165733756D01*
X84284913Y-165804647D02*
X84301211Y-165769474D01*
X84267403Y-165839234D02*
X84284913Y-165804647D01*
X84248704Y-165873192D02*
X84267403Y-165839234D01*
X84228837Y-165906481D02*
X84248704Y-165873192D01*
X84207827Y-165939060D02*
X84228837Y-165906481D01*
X84185699Y-165970891D02*
X84207827Y-165939060D01*
X84162479Y-166001934D02*
X84185699Y-165970891D01*
X84138196Y-166032153D02*
X84162479Y-166001934D01*
X84112879Y-166061510D02*
X84138196Y-166032153D01*
X84086558Y-166089971D02*
X84112879Y-166061510D01*
X84059265Y-166117502D02*
X84086558Y-166089971D01*
X84031034Y-166144069D02*
X84059265Y-166117502D01*
X84001897Y-166169640D02*
X84031034Y-166144069D01*
X83971890Y-166194184D02*
X84001897Y-166169640D01*
X83941049Y-166217672D02*
X83971890Y-166194184D01*
X83909412Y-166240076D02*
X83941049Y-166217672D01*
X83877017Y-166261368D02*
X83909412Y-166240076D01*
X83843901Y-166281523D02*
X83877017Y-166261368D01*
X83810107Y-166300516D02*
X83843901Y-166281523D01*
X83775673Y-166318325D02*
X83810107Y-166300516D01*
X83740642Y-166334929D02*
X83775673Y-166318325D01*
X83705056Y-166350306D02*
X83740642Y-166334929D01*
X83668958Y-166364439D02*
X83705056Y-166350306D01*
X83632391Y-166377311D02*
X83668958Y-166364439D01*
X83595399Y-166388906D02*
X83632391Y-166377311D01*
X83558027Y-166399210D02*
X83595399Y-166388906D01*
X83520320Y-166408210D02*
X83558027Y-166399210D01*
X83482324Y-166415897D02*
X83520320Y-166408210D01*
X83444083Y-166422260D02*
X83482324Y-166415897D01*
X83405645Y-166427293D02*
X83444083Y-166422260D01*
X83367055Y-166430988D02*
X83405645Y-166427293D01*
X83328360Y-166433341D02*
X83367055Y-166430988D01*
X83289607Y-166434350D02*
X83328360Y-166433341D01*
X83250842Y-166434014D02*
X83289607Y-166434350D01*
X83212112Y-166432332D02*
X83250842Y-166434014D01*
X83173464Y-166429308D02*
X83212112Y-166432332D01*
X83134944Y-166424943D02*
X83173464Y-166429308D01*
X83096599Y-166419245D02*
X83134944Y-166424943D01*
X83058475Y-166412219D02*
X83096599Y-166419245D01*
X83020617Y-166403874D02*
X83058475Y-166412219D01*
X82983072Y-166394220D02*
X83020617Y-166403874D01*
X82945885Y-166383269D02*
X82983072Y-166394220D01*
X82909100Y-166371034D02*
X82945885Y-166383269D01*
X82872762Y-166357529D02*
X82909100Y-166371034D01*
X82836914Y-166342772D02*
X82872762Y-166357529D01*
X82801600Y-166326779D02*
X82836914Y-166342772D01*
X82766863Y-166309570D02*
X82801600Y-166326779D01*
X82732744Y-166291166D02*
X82766863Y-166309570D01*
X82699284Y-166271589D02*
X82732744Y-166291166D01*
X82666523Y-166250862D02*
X82699284Y-166271589D01*
X82634502Y-166229011D02*
X82666523Y-166250862D01*
X82603259Y-166206062D02*
X82634502Y-166229011D01*
X82572830Y-166182042D02*
X82603259Y-166206062D01*
X82543254Y-166156981D02*
X82572830Y-166182042D01*
X82514565Y-166130908D02*
X82543254Y-166156981D01*
X82486799Y-166103855D02*
X82514565Y-166130908D01*
X82459988Y-166075855D02*
X82486799Y-166103855D01*
X82434165Y-166046941D02*
X82459988Y-166075855D01*
X82409362Y-166017149D02*
X82434165Y-166046941D01*
X82385607Y-165986513D02*
X82409362Y-166017149D01*
X82362929Y-165955071D02*
X82385607Y-165986513D01*
X82341357Y-165922862D02*
X82362929Y-165955071D01*
X82320916Y-165889923D02*
X82341357Y-165922862D01*
X82301630Y-165856294D02*
X82320916Y-165889923D01*
X82283522Y-165822017D02*
X82301630Y-165856294D01*
X82266616Y-165787131D02*
X82283522Y-165822017D01*
X82250930Y-165751680D02*
X82266616Y-165787131D01*
X82236484Y-165715706D02*
X82250930Y-165751680D01*
X82223296Y-165679252D02*
X82236484Y-165715706D01*
X82211380Y-165642362D02*
X82223296Y-165679252D01*
X82200752Y-165605081D02*
X82211380Y-165642362D01*
X82191425Y-165567454D02*
X82200752Y-165605081D01*
X82183408Y-165529525D02*
X82191425Y-165567454D01*
X82176714Y-165491341D02*
X82183408Y-165529525D01*
X82171348Y-165452948D02*
X82176714Y-165491341D01*
X82167318Y-165414392D02*
X82171348Y-165452948D01*
X82164629Y-165375719D02*
X82167318Y-165414392D01*
X82163283Y-165336976D02*
X82164629Y-165375719D01*
X82163283Y-165298209D02*
X82163283Y-165336976D01*
X82164629Y-165259466D02*
X82163283Y-165298209D01*
X82167318Y-165220793D02*
X82164629Y-165259466D01*
X82171348Y-165182237D02*
X82167318Y-165220793D01*
X82176714Y-165143844D02*
X82171348Y-165182237D01*
X82183408Y-165105660D02*
X82176714Y-165143844D01*
X82191425Y-165067731D02*
X82183408Y-165105660D01*
X82200752Y-165030104D02*
X82191425Y-165067731D01*
X82211380Y-164992823D02*
X82200752Y-165030104D01*
X82223296Y-164955933D02*
X82211380Y-164992823D01*
X82236484Y-164919479D02*
X82223296Y-164955933D01*
X82250930Y-164883505D02*
X82236484Y-164919479D01*
X82266616Y-164848054D02*
X82250930Y-164883505D01*
X82283522Y-164813168D02*
X82266616Y-164848054D01*
X82301630Y-164778891D02*
X82283522Y-164813168D01*
X82320916Y-164745262D02*
X82301630Y-164778891D01*
X82341357Y-164712323D02*
X82320916Y-164745262D01*
X82362929Y-164680113D02*
X82341357Y-164712323D01*
X82385607Y-164648672D02*
X82362929Y-164680113D01*
X82409362Y-164618036D02*
X82385607Y-164648672D01*
X82434165Y-164588244D02*
X82409362Y-164618036D01*
X82459988Y-164559330D02*
X82434165Y-164588244D01*
X82486799Y-164531330D02*
X82459988Y-164559330D01*
X82514565Y-164504277D02*
X82486799Y-164531330D01*
X82543254Y-164478204D02*
X82514565Y-164504277D01*
X82572830Y-164453143D02*
X82543254Y-164478204D01*
X82603259Y-164429123D02*
X82572830Y-164453143D01*
X82634502Y-164406174D02*
X82603259Y-164429123D01*
X82666523Y-164384322D02*
X82634502Y-164406174D01*
X82699284Y-164363596D02*
X82666523Y-164384322D01*
X82732744Y-164344019D02*
X82699284Y-164363596D01*
X82766863Y-164325615D02*
X82732744Y-164344019D01*
X82801600Y-164308406D02*
X82766863Y-164325615D01*
X82836914Y-164292413D02*
X82801600Y-164308406D01*
X82872762Y-164277656D02*
X82836914Y-164292413D01*
X82909100Y-164264151D02*
X82872762Y-164277656D01*
X82945885Y-164251916D02*
X82909100Y-164264151D01*
X82983072Y-164240965D02*
X82945885Y-164251916D01*
X83020617Y-164231311D02*
X82983072Y-164240965D01*
X83058475Y-164222966D02*
X83020617Y-164231311D01*
X83096599Y-164215940D02*
X83058475Y-164222966D01*
X83134944Y-164210242D02*
X83096599Y-164215940D01*
X83173464Y-164205877D02*
X83134944Y-164210242D01*
X83212112Y-164202853D02*
X83173464Y-164205877D01*
X83250842Y-164201171D02*
X83212112Y-164202853D01*
X83289607Y-164200835D02*
X83250842Y-164201171D01*
X83328360Y-164201844D02*
X83289607Y-164200835D01*
X83367055Y-164204197D02*
X83328360Y-164201844D01*
X83405645Y-164207892D02*
X83367055Y-164204197D01*
X83444083Y-164212925D02*
X83405645Y-164207892D01*
X83482324Y-164219288D02*
X83444083Y-164212925D01*
X83520320Y-164226975D02*
X83482324Y-164219288D01*
X83558027Y-164235975D02*
X83520320Y-164226975D01*
X83595399Y-164246279D02*
X83558027Y-164235975D01*
X83632391Y-164257874D02*
X83595399Y-164246279D01*
X83668958Y-164270746D02*
X83632391Y-164257874D01*
X83705056Y-164284879D02*
X83668958Y-164270746D01*
X83740642Y-164300256D02*
X83705056Y-164284879D01*
X83775673Y-164316860D02*
X83740642Y-164300256D01*
X83810107Y-164334669D02*
X83775673Y-164316860D01*
X83843901Y-164353662D02*
X83810107Y-164334669D01*
X83877017Y-164373817D02*
X83843901Y-164353662D01*
X83909412Y-164395109D02*
X83877017Y-164373817D01*
X83941049Y-164417513D02*
X83909412Y-164395109D01*
X83971890Y-164441001D02*
X83941049Y-164417513D01*
X84001897Y-164465545D02*
X83971890Y-164441001D01*
X84031034Y-164491116D02*
X84001897Y-164465545D01*
X84059265Y-164517683D02*
X84031034Y-164491116D01*
X84086558Y-164545213D02*
X84059265Y-164517683D01*
X84112879Y-164573675D02*
X84086558Y-164545213D01*
X84138196Y-164603032D02*
X84112879Y-164573675D01*
X84162479Y-164633251D02*
X84138196Y-164603032D01*
X84185699Y-164664294D02*
X84162479Y-164633251D01*
X84207827Y-164696125D02*
X84185699Y-164664294D01*
X84228837Y-164728704D02*
X84207827Y-164696125D01*
X84248704Y-164761993D02*
X84228837Y-164728704D01*
X84267403Y-164795951D02*
X84248704Y-164761993D01*
X84284913Y-164830538D02*
X84267403Y-164795951D01*
X84301211Y-164865711D02*
X84284913Y-164830538D01*
X84316279Y-164901429D02*
X84301211Y-164865711D01*
X84330099Y-164937649D02*
X84316279Y-164901429D01*
X84342652Y-164974326D02*
X84330099Y-164937649D01*
X84353926Y-165011417D02*
X84342652Y-164974326D01*
X84363905Y-165048877D02*
X84353926Y-165011417D01*
X84372578Y-165086661D02*
X84363905Y-165048877D01*
X84379935Y-165124723D02*
X84372578Y-165086661D01*
X84385966Y-165163017D02*
X84379935Y-165124723D01*
X84390665Y-165201498D02*
X84385966Y-165163017D01*
X84394025Y-165240118D02*
X84390665Y-165201498D01*
X84396042Y-165278832D02*
X84394025Y-165240118D01*
X84396715Y-165317592D02*
X84396042Y-165278832D01*
X99623027Y-159765045D02*
X99587115Y-159701592D01*
X99661092Y-159827230D02*
X99623027Y-159765045D01*
X99701267Y-159888074D02*
X99661092Y-159827230D01*
X99743503Y-159947504D02*
X99701267Y-159888074D01*
X99787752Y-160005452D02*
X99743503Y-159947504D01*
X99833960Y-160061850D02*
X99787752Y-160005452D01*
X99882075Y-160116630D02*
X99833960Y-160061850D01*
X99932039Y-160169729D02*
X99882075Y-160116630D01*
X99983794Y-160221085D02*
X99932039Y-160169729D01*
X100037278Y-160270636D02*
X99983794Y-160221085D01*
X100092430Y-160318325D02*
X100037278Y-160270636D01*
X100149183Y-160364096D02*
X100092430Y-160318325D01*
X100207473Y-160407894D02*
X100149183Y-160364096D01*
X100267229Y-160449669D02*
X100207473Y-160407894D01*
X100328381Y-160489371D02*
X100267229Y-160449669D01*
X100390859Y-160526954D02*
X100328381Y-160489371D01*
X100454588Y-160562373D02*
X100390859Y-160526954D01*
X100519494Y-160595587D02*
X100454588Y-160562373D01*
X100585500Y-160626557D02*
X100519494Y-160595587D01*
X100652529Y-160655246D02*
X100585500Y-160626557D01*
X100720501Y-160681621D02*
X100652529Y-160655246D01*
X100789338Y-160705651D02*
X100720501Y-160681621D01*
X100858958Y-160727307D02*
X100789338Y-160705651D01*
X100929279Y-160746564D02*
X100858958Y-160727307D01*
X101000219Y-160763399D02*
X100929279Y-160746564D01*
X101071695Y-160777793D02*
X101000219Y-160763399D01*
X101143621Y-160789729D02*
X101071695Y-160777793D01*
X101215915Y-160799192D02*
X101143621Y-160789729D01*
X101244177Y-160804419D02*
X101215915Y-160799192D01*
X101272599Y-160808688D02*
X101244177Y-160804419D01*
X101301149Y-160811994D02*
X101272599Y-160808688D01*
X101329794Y-160814334D02*
X101301149Y-160811994D01*
X101358502Y-160815705D02*
X101329794Y-160814334D01*
X101387240Y-160816105D02*
X101358502Y-160815705D01*
X101415975Y-160815535D02*
X101387240Y-160816105D01*
X101444675Y-160813994D02*
X101415975Y-160815535D01*
X101473306Y-160811484D02*
X101444675Y-160813994D01*
X101501836Y-160808009D02*
X101473306Y-160811484D01*
X101530232Y-160803572D02*
X101501836Y-160808009D01*
X101558462Y-160798178D02*
X101530232Y-160803572D01*
X101586494Y-160791833D02*
X101558462Y-160798178D01*
X101614295Y-160784546D02*
X101586494Y-160791833D01*
X101641835Y-160776323D02*
X101614295Y-160784546D01*
X101669081Y-160767175D02*
X101641835Y-160776323D01*
X101696002Y-160757111D02*
X101669081Y-160767175D01*
X101722568Y-160746144D02*
X101696002Y-160757111D01*
X101748748Y-160734286D02*
X101722568Y-160746144D01*
X101774513Y-160721550D02*
X101748748Y-160734286D01*
X101799833Y-160707951D02*
X101774513Y-160721550D01*
X101824679Y-160693504D02*
X101799833Y-160707951D01*
X101849023Y-160678227D02*
X101824679Y-160693504D01*
X101872837Y-160662136D02*
X101849023Y-160678227D01*
X101896094Y-160645249D02*
X101872837Y-160662136D01*
X101918767Y-160627586D02*
X101896094Y-160645249D01*
X101940830Y-160609168D02*
X101918767Y-160627586D01*
X101962259Y-160590015D02*
X101940830Y-160609168D01*
X101983029Y-160570149D02*
X101962259Y-160590015D01*
X102003115Y-160549592D02*
X101983029Y-160570149D01*
X102019073Y-160523105D02*
X102003115Y-160549592D01*
X102034138Y-160496100D02*
X102019073Y-160523105D01*
X102048292Y-160468606D02*
X102034138Y-160496100D01*
X102061519Y-160440655D02*
X102048292Y-160468606D01*
X102073805Y-160412277D02*
X102061519Y-160440655D01*
X102085136Y-160383504D02*
X102073805Y-160412277D01*
X102095499Y-160354370D02*
X102085136Y-160383504D01*
X102104883Y-160324905D02*
X102095499Y-160354370D01*
X102113278Y-160295143D02*
X102104883Y-160324905D01*
X102120673Y-160265117D02*
X102113278Y-160295143D01*
X102127061Y-160234861D02*
X102120673Y-160265117D01*
X102132435Y-160204408D02*
X102127061Y-160234861D01*
X102136788Y-160173793D02*
X102132435Y-160204408D01*
X102140115Y-160143049D02*
X102136788Y-160173793D01*
X102142414Y-160112212D02*
X102140115Y-160143049D01*
X102143681Y-160081315D02*
X102142414Y-160112212D01*
X102143915Y-160050392D02*
X102143681Y-160081315D01*
X102148839Y-159932555D02*
X102143915Y-160050392D01*
X102149759Y-159814619D02*
X102148839Y-159932555D01*
X102146674Y-159696720D02*
X102149759Y-159814619D01*
X102139588Y-159578993D02*
X102146674Y-159696720D01*
X102128508Y-159461575D02*
X102139588Y-159578993D01*
X102113449Y-159344600D02*
X102128508Y-159461575D01*
X102094426Y-159228205D02*
X102113449Y-159344600D01*
X102071462Y-159112522D02*
X102094426Y-159228205D01*
X102044584Y-158997686D02*
X102071462Y-159112522D01*
X102013822Y-158883828D02*
X102044584Y-158997686D01*
X101979212Y-158771081D02*
X102013822Y-158883828D01*
X101940794Y-158659574D02*
X101979212Y-158771081D01*
X101898612Y-158549435D02*
X101940794Y-158659574D01*
X101852715Y-158440792D02*
X101898612Y-158549435D01*
X101722679Y-158463552D02*
X101852715Y-158440792D01*
X101593481Y-158490669D02*
X101722679Y-158463552D01*
X101465268Y-158522114D02*
X101593481Y-158490669D01*
X101338184Y-158557851D02*
X101465268Y-158522114D01*
X101212373Y-158597838D02*
X101338184Y-158557851D01*
X101087977Y-158642032D02*
X101212373Y-158597838D01*
X100965137Y-158690383D02*
X101087977Y-158642032D01*
X100843991Y-158742835D02*
X100965137Y-158690383D01*
X100724677Y-158799329D02*
X100843991Y-158742835D01*
X100607329Y-158859801D02*
X100724677Y-158799329D01*
X100492080Y-158924184D02*
X100607329Y-158859801D01*
X100379061Y-158992404D02*
X100492080Y-158924184D01*
X100268398Y-159064385D02*
X100379061Y-158992404D01*
X100160217Y-159140044D02*
X100268398Y-159064385D01*
X100054640Y-159219297D02*
X100160217Y-159140044D01*
X99951787Y-159302054D02*
X100054640Y-159219297D01*
X99851774Y-159388221D02*
X99951787Y-159302054D01*
X99754713Y-159477701D02*
X99851774Y-159388221D01*
X99660715Y-159570392D02*
X99754713Y-159477701D01*
X83386218Y-158766353D02*
X83449515Y-158677592D01*
X83319902Y-158852881D02*
X83386218Y-158766353D01*
X83250645Y-158937073D02*
X83319902Y-158852881D01*
X83178530Y-159018830D02*
X83250645Y-158937073D01*
X83103641Y-159098055D02*
X83178530Y-159018830D01*
X83026068Y-159174653D02*
X83103641Y-159098055D01*
X82945902Y-159248534D02*
X83026068Y-159174653D01*
X82863240Y-159319610D02*
X82945902Y-159248534D01*
X82778179Y-159387797D02*
X82863240Y-159319610D01*
X82690820Y-159453014D02*
X82778179Y-159387797D01*
X82601266Y-159515184D02*
X82690820Y-159453014D01*
X82509624Y-159574232D02*
X82601266Y-159515184D01*
X82416003Y-159630088D02*
X82509624Y-159574232D01*
X82320514Y-159682687D02*
X82416003Y-159630088D01*
X82223269Y-159731966D02*
X82320514Y-159682687D01*
X82124386Y-159777867D02*
X82223269Y-159731966D01*
X82023979Y-159820334D02*
X82124386Y-159777867D01*
X81922170Y-159859318D02*
X82023979Y-159820334D01*
X81819079Y-159894773D02*
X81922170Y-159859318D01*
X81714827Y-159926655D02*
X81819079Y-159894773D01*
X81609539Y-159954929D02*
X81714827Y-159926655D01*
X81503340Y-159979559D02*
X81609539Y-159954929D01*
X81396356Y-160000516D02*
X81503340Y-159979559D01*
X81288713Y-160017777D02*
X81396356Y-160000516D01*
X81180540Y-160031320D02*
X81288713Y-160017777D01*
X81071964Y-160041129D02*
X81180540Y-160031320D01*
X80963115Y-160047192D02*
X81071964Y-160041129D01*
X80938863Y-159923074D02*
X80963115Y-160047192D01*
X80918908Y-159798192D02*
X80938863Y-159923074D01*
X80903274Y-159672696D02*
X80918908Y-159798192D01*
X80891979Y-159546736D02*
X80903274Y-159672696D01*
X80885038Y-159420460D02*
X80891979Y-159546736D01*
X80882459Y-159294021D02*
X80885038Y-159420460D01*
X80884244Y-159167567D02*
X80882459Y-159294021D01*
X80890391Y-159041251D02*
X80884244Y-159167567D01*
X80900893Y-158915222D02*
X80890391Y-159041251D01*
X80915738Y-158789630D02*
X80900893Y-158915222D01*
X80934908Y-158664626D02*
X80915738Y-158789630D01*
X80958380Y-158540357D02*
X80934908Y-158664626D01*
X80986126Y-158416972D02*
X80958380Y-158540357D01*
X81018113Y-158294618D02*
X80986126Y-158416972D01*
X81054303Y-158173441D02*
X81018113Y-158294618D01*
X81094653Y-158053585D02*
X81054303Y-158173441D01*
X81139115Y-157935192D02*
X81094653Y-158053585D01*
X81292715Y-157717592D02*
X81139115Y-157935192D01*
X81306940Y-157712887D02*
X81292715Y-157717592D01*
X81321318Y-157708674D02*
X81306940Y-157712887D01*
X81335832Y-157704958D02*
X81321318Y-157708674D01*
X81350466Y-157701743D02*
X81335832Y-157704958D01*
X81365201Y-157699034D02*
X81350466Y-157701743D01*
X81380021Y-157696833D02*
X81365201Y-157699034D01*
X81394908Y-157695144D02*
X81380021Y-157696833D01*
X81409845Y-157693967D02*
X81394908Y-157695144D01*
X81424813Y-157693306D02*
X81409845Y-157693967D01*
X81439795Y-157693159D02*
X81424813Y-157693306D01*
X81454773Y-157693528D02*
X81439795Y-157693159D01*
X81469729Y-157694412D02*
X81454773Y-157693528D01*
X81484646Y-157695810D02*
X81469729Y-157694412D01*
X81499507Y-157697721D02*
X81484646Y-157695810D01*
X81514292Y-157700142D02*
X81499507Y-157697721D01*
X81528986Y-157703069D02*
X81514292Y-157700142D01*
X81543571Y-157706501D02*
X81528986Y-157703069D01*
X81558028Y-157710432D02*
X81543571Y-157706501D01*
X81572342Y-157714859D02*
X81558028Y-157710432D01*
X81586495Y-157719775D02*
X81572342Y-157714859D01*
X81600471Y-157725175D02*
X81586495Y-157719775D01*
X81614252Y-157731053D02*
X81600471Y-157725175D01*
X81627823Y-157737401D02*
X81614252Y-157731053D01*
X81641168Y-157744213D02*
X81627823Y-157737401D01*
X81654270Y-157751479D02*
X81641168Y-157744213D01*
X81667115Y-157759192D02*
X81654270Y-157751479D01*
X83283115Y-158472792D02*
X81667115Y-157759192D01*
X82745515Y-174715992D02*
X82748715Y-174719192D01*
X83226790Y-174904079D02*
X82745515Y-174715992D01*
X83713389Y-175076708D02*
X83226790Y-174904079D01*
X84204972Y-175234136D02*
X83713389Y-175076708D01*
X84701203Y-175376617D02*
X84204972Y-175234136D01*
X85201741Y-175504408D02*
X84701203Y-175376617D01*
X85706248Y-175617764D02*
X85201741Y-175504408D01*
X86214386Y-175716941D02*
X85706248Y-175617764D01*
X86725815Y-175802192D02*
X86214386Y-175716941D01*
X87240198Y-175873776D02*
X86725815Y-175802192D01*
X87757195Y-175931946D02*
X87240198Y-175873776D01*
X88276468Y-175976958D02*
X87757195Y-175931946D01*
X88797678Y-176009067D02*
X88276468Y-175976958D01*
X89320486Y-176028530D02*
X88797678Y-176009067D01*
X89844554Y-176035602D02*
X89320486Y-176028530D01*
X90369543Y-176030537D02*
X89844554Y-176035602D01*
X90895115Y-176013592D02*
X90369543Y-176030537D01*
X91420931Y-175985023D02*
X90895115Y-176013592D01*
X91946651Y-175945083D02*
X91420931Y-175985023D01*
X92471938Y-175894030D02*
X91946651Y-175945083D01*
X92996453Y-175832117D02*
X92471938Y-175894030D01*
X93519856Y-175759602D02*
X92996453Y-175832117D01*
X94041810Y-175676739D02*
X93519856Y-175759602D01*
X94561976Y-175583784D02*
X94041810Y-175676739D01*
X95080015Y-175480992D02*
X94561976Y-175583784D01*
X95595588Y-175368619D02*
X95080015Y-175480992D01*
X96108357Y-175246921D02*
X95595588Y-175368619D01*
X96617983Y-175116151D02*
X96108357Y-175246921D01*
X97124128Y-174976567D02*
X96617983Y-175116151D01*
X97626452Y-174828424D02*
X97124128Y-174976567D01*
X98124617Y-174671977D02*
X97626452Y-174828424D01*
X99107115Y-174335192D02*
X98124617Y-174671977D01*
X99445333Y-174226004D02*
X99107115Y-174335192D01*
X99779770Y-174105732D02*
X99445333Y-174226004D01*
X100110063Y-173974509D02*
X99779770Y-174105732D01*
X100435854Y-173832476D02*
X100110063Y-173974509D01*
X100756790Y-173679788D02*
X100435854Y-173832476D01*
X101072521Y-173516609D02*
X100756790Y-173679788D01*
X101382706Y-173343119D02*
X101072521Y-173516609D01*
X101687006Y-173159504D02*
X101382706Y-173343119D01*
X101985093Y-172965964D02*
X101687006Y-173159504D01*
X102276642Y-172762710D02*
X101985093Y-172965964D01*
X102561337Y-172549961D02*
X102276642Y-172762710D01*
X102838869Y-172327949D02*
X102561337Y-172549961D01*
X103108937Y-172096915D02*
X102838869Y-172327949D01*
X103371247Y-171857109D02*
X103108937Y-172096915D01*
X103625515Y-171608792D02*
X103371247Y-171857109D01*
X103778899Y-171414946D02*
X103625515Y-171608792D01*
X103925483Y-171215907D02*
X103778899Y-171414946D01*
X104065090Y-171011914D02*
X103925483Y-171215907D01*
X104197554Y-170803211D02*
X104065090Y-171011914D01*
X104322715Y-170590049D02*
X104197554Y-170803211D01*
X104440424Y-170372683D02*
X104322715Y-170590049D01*
X104550540Y-170151374D02*
X104440424Y-170372683D01*
X104652930Y-169926386D02*
X104550540Y-170151374D01*
X104747473Y-169697990D02*
X104652930Y-169926386D01*
X104834054Y-169466458D02*
X104747473Y-169697990D01*
X104912571Y-169232068D02*
X104834054Y-169466458D01*
X104982928Y-168995102D02*
X104912571Y-169232068D01*
X105045042Y-168755842D02*
X104982928Y-168995102D01*
X105098839Y-168514576D02*
X105045042Y-168755842D01*
X105144253Y-168271593D02*
X105098839Y-168514576D01*
X105181231Y-168027184D02*
X105144253Y-168271593D01*
X105209727Y-167781641D02*
X105181231Y-168027184D01*
X105229709Y-167535259D02*
X105209727Y-167781641D01*
X105241152Y-167288333D02*
X105229709Y-167535259D01*
X105244042Y-167041159D02*
X105241152Y-167288333D01*
X105238376Y-166794033D02*
X105244042Y-167041159D01*
X105224160Y-166547251D02*
X105238376Y-166794033D01*
X105201413Y-166301109D02*
X105224160Y-166547251D01*
X105170160Y-166055902D02*
X105201413Y-166301109D01*
X105130439Y-165811924D02*
X105170160Y-166055902D01*
X105082299Y-165569466D02*
X105130439Y-165811924D01*
X105025796Y-165328819D02*
X105082299Y-165569466D01*
X104960998Y-165090272D02*
X105025796Y-165328819D01*
X104887984Y-164854111D02*
X104960998Y-165090272D01*
X104806840Y-164620618D02*
X104887984Y-164854111D01*
X104717664Y-164390073D02*
X104806840Y-164620618D01*
X104620562Y-164162753D02*
X104717664Y-164390073D01*
X104515651Y-163938929D02*
X104620562Y-164162753D01*
X104403056Y-163718871D02*
X104515651Y-163938929D01*
X104282913Y-163502841D02*
X104403056Y-163718871D01*
X104155366Y-163291098D02*
X104282913Y-163502841D01*
X104020566Y-163083897D02*
X104155366Y-163291098D01*
X103878677Y-162881484D02*
X104020566Y-163083897D01*
X103729867Y-162684104D02*
X103878677Y-162881484D01*
X103574315Y-162491992D02*
X103729867Y-162684104D01*
X104806315Y-159487192D02*
X103574315Y-162491992D01*
X104911467Y-159222292D02*
X104806315Y-159487192D01*
X105011834Y-158948542D02*
X104911467Y-159222292D01*
X105105178Y-158667967D02*
X105011834Y-158948542D01*
X105148519Y-158525753D02*
X105105178Y-158667967D01*
X105189265Y-158382592D02*
X105148519Y-158525753D01*
X105227138Y-158238738D02*
X105189265Y-158382592D01*
X105261858Y-158094442D02*
X105227138Y-158238738D01*
X105293146Y-157949960D02*
X105261858Y-158094442D01*
X105320721Y-157805542D02*
X105293146Y-157949960D01*
X105344306Y-157661444D02*
X105320721Y-157805542D01*
X105363619Y-157517917D02*
X105344306Y-157661444D01*
X105378382Y-157375216D02*
X105363619Y-157517917D01*
X105388315Y-157233592D02*
X105378382Y-157375216D01*
X105391383Y-157163264D02*
X105388315Y-157233592D01*
X105393139Y-157093300D02*
X105391383Y-157163264D01*
X105393547Y-157023733D02*
X105393139Y-157093300D01*
X105392574Y-156954592D02*
X105393547Y-157023733D01*
X105390183Y-156885912D02*
X105392574Y-156954592D01*
X105386340Y-156817722D02*
X105390183Y-156885912D01*
X105381010Y-156750055D02*
X105386340Y-156817722D01*
X105374159Y-156682942D02*
X105381010Y-156750055D01*
X105365750Y-156616416D02*
X105374159Y-156682942D01*
X105355750Y-156550507D02*
X105365750Y-156616416D01*
X105344123Y-156485247D02*
X105355750Y-156550507D01*
X105330835Y-156420667D02*
X105344123Y-156485247D01*
X105315849Y-156356801D02*
X105330835Y-156420667D01*
X105299133Y-156293678D02*
X105315849Y-156356801D01*
X105280650Y-156231332D02*
X105299133Y-156293678D01*
X105260365Y-156169792D02*
X105280650Y-156231332D01*
X105238244Y-156109092D02*
X105260365Y-156169792D01*
X105214252Y-156049263D02*
X105238244Y-156109092D01*
X105188354Y-155990336D02*
X105214252Y-156049263D01*
X105160514Y-155932342D02*
X105188354Y-155990336D01*
X105130699Y-155875315D02*
X105160514Y-155932342D01*
X105115039Y-155847173D02*
X105130699Y-155875315D01*
X105098872Y-155819285D02*
X105115039Y-155847173D01*
X105082194Y-155791653D02*
X105098872Y-155819285D01*
X105065000Y-155764283D02*
X105082194Y-155791653D01*
X105047285Y-155737178D02*
X105065000Y-155764283D01*
X105029046Y-155710342D02*
X105047285Y-155737178D01*
X105010278Y-155683780D02*
X105029046Y-155710342D01*
X104990977Y-155657494D02*
X105010278Y-155683780D01*
X104971138Y-155631489D02*
X104990977Y-155657494D01*
X104950757Y-155605769D02*
X104971138Y-155631489D01*
X104929830Y-155580338D02*
X104950757Y-155605769D01*
X104908352Y-155555200D02*
X104929830Y-155580338D01*
X104886318Y-155530358D02*
X104908352Y-155555200D01*
X104863725Y-155505817D02*
X104886318Y-155530358D01*
X104840568Y-155481581D02*
X104863725Y-155505817D01*
X104816843Y-155457654D02*
X104840568Y-155481581D01*
X104792546Y-155434039D02*
X104816843Y-155457654D01*
X104767671Y-155410741D02*
X104792546Y-155434039D01*
X104742215Y-155387763D02*
X104767671Y-155410741D01*
X104716173Y-155365110D02*
X104742215Y-155387763D01*
X104689541Y-155342785D02*
X104716173Y-155365110D01*
X104662315Y-155320792D02*
X104689541Y-155342785D01*
X104619708Y-155288105D02*
X104662315Y-155320792D01*
X104576499Y-155256930D02*
X104619708Y-155288105D01*
X104532702Y-155227246D02*
X104576499Y-155256930D01*
X104488335Y-155199032D02*
X104532702Y-155227246D01*
X104443412Y-155172268D02*
X104488335Y-155199032D01*
X104397950Y-155146932D02*
X104443412Y-155172268D01*
X104351964Y-155123003D02*
X104397950Y-155146932D01*
X104305471Y-155100461D02*
X104351964Y-155123003D01*
X104258487Y-155079285D02*
X104305471Y-155100461D01*
X104211027Y-155059454D02*
X104258487Y-155079285D01*
X104163106Y-155040947D02*
X104211027Y-155059454D01*
X104114742Y-155023743D02*
X104163106Y-155040947D01*
X104065950Y-155007822D02*
X104114742Y-155023743D01*
X104016746Y-154993162D02*
X104065950Y-155007822D01*
X103967146Y-154979742D02*
X104016746Y-154993162D01*
X103917165Y-154967542D02*
X103967146Y-154979742D01*
X103866820Y-154956542D02*
X103917165Y-154967542D01*
X103816126Y-154946719D02*
X103866820Y-154956542D01*
X103765100Y-154938053D02*
X103816126Y-154946719D01*
X103713757Y-154930523D02*
X103765100Y-154938053D01*
X103662112Y-154924109D02*
X103713757Y-154930523D01*
X103610183Y-154918789D02*
X103662112Y-154924109D01*
X103557985Y-154914542D02*
X103610183Y-154918789D01*
X103505534Y-154911349D02*
X103557985Y-154914542D01*
X103452845Y-154909187D02*
X103505534Y-154911349D01*
X103399935Y-154908036D02*
X103452845Y-154909187D01*
X103346820Y-154907875D02*
X103399935Y-154908036D01*
X103293514Y-154908684D02*
X103346820Y-154907875D01*
X103186399Y-154913125D02*
X103293514Y-154908684D01*
X103078715Y-154921192D02*
X103186399Y-154913125D01*
X102970591Y-154932719D02*
X103078715Y-154921192D01*
X102862153Y-154947539D02*
X102970591Y-154932719D01*
X102753529Y-154965483D02*
X102862153Y-154947539D01*
X102644846Y-154986386D02*
X102753529Y-154965483D01*
X102536231Y-155010081D02*
X102644846Y-154986386D01*
X102427811Y-155036400D02*
X102536231Y-155010081D01*
X102319713Y-155065176D02*
X102427811Y-155036400D01*
X102212065Y-155096242D02*
X102319713Y-155065176D01*
X102104993Y-155129433D02*
X102212065Y-155096242D01*
X101998625Y-155164579D02*
X102104993Y-155129433D01*
X101788509Y-155240074D02*
X101998625Y-155164579D01*
X101582733Y-155321390D02*
X101788509Y-155240074D01*
X101382315Y-155407192D02*
X101582733Y-155321390D01*
X100843400Y-155657349D02*
X101382315Y-155407192D01*
X100313083Y-155925252D02*
X100843400Y-155657349D01*
X99791948Y-156210606D02*
X100313083Y-155925252D01*
X99280571Y-156513098D02*
X99791948Y-156210606D01*
X98779513Y-156832394D02*
X99280571Y-156513098D01*
X98289328Y-157168141D02*
X98779513Y-156832394D01*
X97810555Y-157519971D02*
X98289328Y-157168141D01*
X97343721Y-157887496D02*
X97810555Y-157519971D01*
X96889341Y-158270310D02*
X97343721Y-157887496D01*
X96447915Y-158667992D02*
X96889341Y-158270310D01*
X96042600Y-158502951D02*
X96447915Y-158667992D01*
X95631990Y-158351563D02*
X96042600Y-158502951D01*
X95216544Y-158213998D02*
X95631990Y-158351563D01*
X94796728Y-158090411D02*
X95216544Y-158213998D01*
X94373013Y-157980940D02*
X94796728Y-158090411D01*
X93945871Y-157885706D02*
X94373013Y-157980940D01*
X93515783Y-157804818D02*
X93945871Y-157885706D01*
X93083229Y-157738365D02*
X93515783Y-157804818D01*
X92648693Y-157686423D02*
X93083229Y-157738365D01*
X92212663Y-157649048D02*
X92648693Y-157686423D01*
X91775627Y-157626283D02*
X92212663Y-157649048D01*
X91338073Y-157618154D02*
X91775627Y-157626283D01*
X90900493Y-157624669D02*
X91338073Y-157618154D01*
X90463375Y-157645822D02*
X90900493Y-157624669D01*
X90027211Y-157681588D02*
X90463375Y-157645822D01*
X89592486Y-157731928D02*
X90027211Y-157681588D01*
X89159690Y-157796784D02*
X89592486Y-157731928D01*
X88729306Y-157876086D02*
X89159690Y-157796784D01*
X88301817Y-157969743D02*
X88729306Y-157876086D01*
X87877700Y-158077651D02*
X88301817Y-157969743D01*
X87457431Y-158199689D02*
X87877700Y-158077651D01*
X87041481Y-158335720D02*
X87457431Y-158199689D01*
X86630315Y-158485592D02*
X87041481Y-158335720D01*
X86321624Y-158059914D02*
X86630315Y-158485592D01*
X85995884Y-157637517D02*
X86321624Y-158059914D01*
X85653597Y-157222358D02*
X85995884Y-157637517D01*
X85476405Y-157018729D02*
X85653597Y-157222358D01*
X85295265Y-156818392D02*
X85476405Y-157018729D01*
X85110239Y-156621844D02*
X85295265Y-156818392D01*
X84921389Y-156429577D02*
X85110239Y-156621844D01*
X84728779Y-156242087D02*
X84921389Y-156429577D01*
X84532471Y-156059867D02*
X84728779Y-156242087D01*
X84332528Y-155883414D02*
X84532471Y-156059867D01*
X84129013Y-155713221D02*
X84332528Y-155883414D01*
X83921987Y-155549782D02*
X84129013Y-155713221D01*
X83711515Y-155393592D02*
X83921987Y-155549782D01*
X83497658Y-155245147D02*
X83711515Y-155393592D01*
X83280480Y-155104939D02*
X83497658Y-155245147D01*
X83170665Y-155038080D02*
X83280480Y-155104939D01*
X83060043Y-154973465D02*
X83170665Y-155038080D01*
X82948621Y-154911157D02*
X83060043Y-154973465D01*
X82836409Y-154851217D02*
X82948621Y-154911157D01*
X82723413Y-154793709D02*
X82836409Y-154851217D01*
X82609642Y-154738692D02*
X82723413Y-154793709D01*
X82495102Y-154686230D02*
X82609642Y-154738692D01*
X82379803Y-154636383D02*
X82495102Y-154686230D01*
X82263752Y-154589214D02*
X82379803Y-154636383D01*
X82146957Y-154544785D02*
X82263752Y-154589214D01*
X82029425Y-154503157D02*
X82146957Y-154544785D01*
X81911165Y-154464392D02*
X82029425Y-154503157D01*
X81792184Y-154428553D02*
X81911165Y-154464392D01*
X81672490Y-154395700D02*
X81792184Y-154428553D01*
X81552092Y-154365896D02*
X81672490Y-154395700D01*
X81430996Y-154339202D02*
X81552092Y-154365896D01*
X81309210Y-154315680D02*
X81430996Y-154339202D01*
X81186743Y-154295393D02*
X81309210Y-154315680D01*
X81063603Y-154278401D02*
X81186743Y-154295393D01*
X80939796Y-154264767D02*
X81063603Y-154278401D01*
X80815332Y-154254553D02*
X80939796Y-154264767D01*
X80690217Y-154247820D02*
X80815332Y-154254553D01*
X80564460Y-154244630D02*
X80690217Y-154247820D01*
X80438069Y-154245046D02*
X80564460Y-154244630D01*
X80311051Y-154249128D02*
X80438069Y-154245046D01*
X80183414Y-154256938D02*
X80311051Y-154249128D01*
X80055166Y-154268539D02*
X80183414Y-154256938D01*
X79926315Y-154283992D02*
X80055166Y-154268539D01*
X79856206Y-154289904D02*
X79926315Y-154283992D01*
X79786338Y-154298196D02*
X79856206Y-154289904D01*
X79716793Y-154308859D02*
X79786338Y-154298196D01*
X79647650Y-154321879D02*
X79716793Y-154308859D01*
X79578990Y-154337243D02*
X79647650Y-154321879D01*
X79510892Y-154354932D02*
X79578990Y-154337243D01*
X79443435Y-154374926D02*
X79510892Y-154354932D01*
X79376696Y-154397201D02*
X79443435Y-154374926D01*
X79310754Y-154421733D02*
X79376696Y-154397201D01*
X79245683Y-154448492D02*
X79310754Y-154421733D01*
X79181560Y-154477448D02*
X79245683Y-154448492D01*
X79118458Y-154508567D02*
X79181560Y-154477448D01*
X79056451Y-154541814D02*
X79118458Y-154508567D01*
X78995610Y-154577149D02*
X79056451Y-154541814D01*
X78936005Y-154614532D02*
X78995610Y-154577149D01*
X78877705Y-154653920D02*
X78936005Y-154614532D01*
X78820779Y-154695268D02*
X78877705Y-154653920D01*
X78765291Y-154738526D02*
X78820779Y-154695268D01*
X78711305Y-154783646D02*
X78765291Y-154738526D01*
X78658885Y-154830576D02*
X78711305Y-154783646D01*
X78608091Y-154879260D02*
X78658885Y-154830576D01*
X78558981Y-154929643D02*
X78608091Y-154879260D01*
X78511612Y-154981667D02*
X78558981Y-154929643D01*
X78466039Y-155035270D02*
X78511612Y-154981667D01*
X78422315Y-155090392D02*
X78466039Y-155035270D01*
X78384392Y-155165394D02*
X78422315Y-155090392D01*
X78349109Y-155241673D02*
X78384392Y-155165394D01*
X78316509Y-155319137D02*
X78349109Y-155241673D01*
X78286632Y-155397691D02*
X78316509Y-155319137D01*
X78259515Y-155477240D02*
X78286632Y-155397691D01*
X78235190Y-155557687D02*
X78259515Y-155477240D01*
X78213687Y-155638934D02*
X78235190Y-155557687D01*
X78195032Y-155720881D02*
X78213687Y-155638934D01*
X78179248Y-155803430D02*
X78195032Y-155720881D01*
X78166354Y-155886479D02*
X78179248Y-155803430D01*
X78156366Y-155969928D02*
X78166354Y-155886479D01*
X78149296Y-156053674D02*
X78156366Y-155969928D01*
X78145153Y-156137616D02*
X78149296Y-156053674D01*
X78143941Y-156221651D02*
X78145153Y-156137616D01*
X78145663Y-156305677D02*
X78143941Y-156221651D01*
X78150315Y-156389592D02*
X78145663Y-156305677D01*
X78158128Y-156739496D02*
X78150315Y-156389592D01*
X78177853Y-157088931D02*
X78158128Y-156739496D01*
X78209466Y-157437491D02*
X78177853Y-157088931D01*
X78252933Y-157784772D02*
X78209466Y-157437491D01*
X78308201Y-158130372D02*
X78252933Y-157784772D01*
X78375207Y-158473888D02*
X78308201Y-158130372D01*
X78453874Y-158814924D02*
X78375207Y-158473888D01*
X78544109Y-159153082D02*
X78453874Y-158814924D01*
X78645809Y-159487972D02*
X78544109Y-159153082D01*
X78758854Y-159819203D02*
X78645809Y-159487972D01*
X78883115Y-160146392D02*
X78758854Y-159819203D01*
X78114922Y-161477949D02*
X78883115Y-160146392D01*
X77380897Y-162828641D02*
X78114922Y-161477949D01*
X76681515Y-164197592D02*
X77380897Y-162828641D01*
X76600607Y-164342889D02*
X76681515Y-164197592D01*
X76524393Y-164490702D02*
X76600607Y-164342889D01*
X76452950Y-164640879D02*
X76524393Y-164490702D01*
X76386353Y-164793267D02*
X76452950Y-164640879D01*
X76324668Y-164947709D02*
X76386353Y-164793267D01*
X76267961Y-165104046D02*
X76324668Y-164947709D01*
X76216288Y-165262120D02*
X76267961Y-165104046D01*
X76169703Y-165421766D02*
X76216288Y-165262120D01*
X76128253Y-165582823D02*
X76169703Y-165421766D01*
X76091981Y-165745124D02*
X76128253Y-165582823D01*
X76060925Y-165908503D02*
X76091981Y-165745124D01*
X76035115Y-166072792D02*
X76060925Y-165908503D01*
X76031952Y-166215656D02*
X76035115Y-166072792D01*
X76033429Y-166358547D02*
X76031952Y-166215656D01*
X76039547Y-166501315D02*
X76033429Y-166358547D01*
X76050297Y-166643809D02*
X76039547Y-166501315D01*
X76065669Y-166785878D02*
X76050297Y-166643809D01*
X76085647Y-166927374D02*
X76065669Y-166785878D01*
X76110210Y-167068146D02*
X76085647Y-166927374D01*
X76139331Y-167208046D02*
X76110210Y-167068146D01*
X76172980Y-167346926D02*
X76139331Y-167208046D01*
X76211121Y-167484641D02*
X76172980Y-167346926D01*
X76253714Y-167621044D02*
X76211121Y-167484641D01*
X76300715Y-167755992D02*
X76253714Y-167621044D01*
X76429633Y-168125616D02*
X76300715Y-167755992D01*
X76571145Y-168490603D02*
X76429633Y-168125616D01*
X76725085Y-168850524D02*
X76571145Y-168490603D01*
X76891271Y-169204958D02*
X76725085Y-168850524D01*
X77069509Y-169553487D02*
X76891271Y-169204958D01*
X77259589Y-169895701D02*
X77069509Y-169553487D01*
X77461287Y-170231199D02*
X77259589Y-169895701D01*
X77674367Y-170559586D02*
X77461287Y-170231199D01*
X77898579Y-170880476D02*
X77674367Y-170559586D01*
X78133657Y-171193492D02*
X77898579Y-170880476D01*
X78379327Y-171498266D02*
X78133657Y-171193492D01*
X78635300Y-171794440D02*
X78379327Y-171498266D01*
X78901274Y-172081666D02*
X78635300Y-171794440D01*
X79176938Y-172359606D02*
X78901274Y-172081666D01*
X79461966Y-172627934D02*
X79176938Y-172359606D01*
X79756025Y-172886334D02*
X79461966Y-172627934D01*
X80058768Y-173134502D02*
X79756025Y-172886334D01*
X80369840Y-173372148D02*
X80058768Y-173134502D01*
X80688876Y-173598990D02*
X80369840Y-173372148D01*
X81015499Y-173814764D02*
X80688876Y-173598990D01*
X81349326Y-174019215D02*
X81015499Y-173814764D01*
X81689966Y-174212103D02*
X81349326Y-174019215D01*
X82037017Y-174393202D02*
X81689966Y-174212103D01*
X82390072Y-174562298D02*
X82037017Y-174393202D01*
X82748715Y-174719192D02*
X82390072Y-174562298D01*
X30960000Y-163140000D02*
X50960000Y-163140000D01*
X40960000Y-158140000D02*
X40960000Y-168140000D01*
X30960000Y-158140000D02*
X30960000Y-168140000D01*
X50960000Y-158140000D02*
X30960000Y-158140000D01*
X50960000Y-168140000D02*
X50960000Y-158140000D01*
X30960000Y-168140000D02*
X50960000Y-168140000D01*
X30960000Y-163140000D02*
X50960000Y-163140000D01*
X40960000Y-158140000D02*
X40960000Y-168140000D01*
X30960000Y-158140000D02*
X30960000Y-168140000D01*
X50960000Y-158140000D02*
X30960000Y-158140000D01*
X50960000Y-168140000D02*
X50960000Y-158140000D01*
X30960000Y-168140000D02*
X50960000Y-168140000D01*
M02*
